# xmcd
#
# Track frame offsets: 
#        150
#        17847
#        34845
#        43315
#        60055
#        73875
#        100322
#        127490
#        144278
#        163207
#        173690
#        187965
#        203841
#
# Disc length: 3012 seconds
#
# Revision: 0
# Processed by: cddbd v1.5.2PL0 Copyright (c) Steve Scherf et al.
# Submitted via: ExactAudioCopyFreeDBPlugin 1.0
#
DISCID=bc0bc20d
DTITLE=Ronnie Milsap - Ronnie Milsap Live
DYEAR=1976
DGENRE=Country
TTITLE0=Introduction - Ralph Emery - Pure Love
TTITLE1=Medley: I Hate You - That Girl Who Waits On Tables
TTITLE2=Welcome - Talk By Ronnie Milsap
TTITLE3=Medley: (I'm A) Stand By My Woman Man - What Goes On When The 
TTITLE3=Sun Goes Down - Daydreams About Night Things
TTITLE4=Busy Makin' Plans
TTITLE5=Kaw-Liga
TTITLE6=Country Cookin'
TTITLE7=I Can Almost See Houston From Here
TTITLE8=(After Sweet Memories) Play Born To Lose Again
TTITLE9=Music Style Medley: Daydreams About Night Things - Cattle Call
TTITLE10=Let My Love Be Your Pillow
TTITLE11=(I'd Be) A Legend In My Time
TTITLE12=Honky Tonk Women
EXTD=
EXTT0=
EXTT1=
EXTT2=
EXTT3=
EXTT4=
EXTT5=
EXTT6=
EXTT7=
EXTT8=
EXTT9=
EXTT10=
EXTT11=
EXTT12=
PLAYORDER=
